<svg viewBox="0 0 64 64" fill="none" xmlns="http://www.w3.org/2000/svg">
  <rect width="64" height="64" rx="12" fill="#252A35"/>
  <!-- U-bracket -->
  <path d="M14 8 L14 40 C14 52 32 58 32 58 C32 58 50 52 50 40 L50 8"
        stroke="#B3A369" stroke-width="4.5" stroke-linecap="round" stroke-linejoin="round"/>
  <line x1="32" y1="58" x2="32" y2="62"
        stroke="#B3A369" stroke-width="4.5" stroke-linecap="round"/>
  <!-- Wheat stem -->
  <line x1="32" y1="52" x2="32" y2="16"
        stroke="#B3A369" stroke-width="2.5" stroke-linecap="round"/>
  <!-- Lower leaves -->
  <path d="M32 47 C26 40 20 36 20 31" stroke="#B3A369" stroke-width="2.5" stroke-linecap="round" fill="none"/>
  <path d="M32 47 C38 40 44 36 44 31" stroke="#B3A369" stroke-width="2.5" stroke-linecap="round" fill="none"/>
  <!-- Mid leaves -->
  <path d="M32 38 C26 31 20 25 21 21" stroke="#B3A369" stroke-width="2.5" stroke-linecap="round" fill="none"/>
  <path d="M32 38 C38 31 44 25 43 21" stroke="#B3A369" stroke-width="2.5" stroke-linecap="round" fill="none"/>
  <!-- Upper leaves -->
  <path d="M32 29 C28 22 26 16 27 13" stroke="#B3A369" stroke-width="2.5" stroke-linecap="round" fill="none"/>
  <path d="M32 29 C36 22 38 16 37 13" stroke="#B3A369" stroke-width="2.5" stroke-linecap="round" fill="none"/>
  <!-- Grain head — centre kernel -->
  <path d="M32 21 C30 15 30 9 32 6 C34 9 34 15 32 21 Z"
        stroke="#B3A369" stroke-width="2" stroke-linejoin="round" fill="none"/>
  <!-- left kernel -->
  <path d="M32 21 C27 17 26 10 28 7 C31 10 32 16 32 21 Z"
        stroke="#B3A369" stroke-width="2" stroke-linejoin="round" fill="none"/>
  <!-- right kernel -->
  <path d="M32 21 C37 17 38 10 36 7 C33 10 32 16 32 21 Z"
        stroke="#B3A369" stroke-width="2" stroke-linejoin="round" fill="none"/>
</svg>
